<svg xmlns="http://www.w3.org/2000/svg" viewBox="0 0 866 1000" role="img" aria-label="LocalHold hex sticker">
  <!-- Standard pointy-top hex sticker proportions (2" die-cut compatible, w = 0.866h).
       A hexagon is a fort trace; the Plan of the Hold sits inside its own walls. -->
  <polygon points="433,0 866,250 866,750 433,1000 0,750 0,250" fill="#10161E"/>
  <polygon points="433,38 833,269 833,731 433,962 33,731 33,269"
           fill="none" stroke="#C89B3C" stroke-width="6"/>

  <!-- The Plan of the Hold: solid in argent — the subject voice -->
  <g transform="translate(433 430) scale(10.5) translate(-32 -32)">
    <path fill="#F2F4F6" fill-rule="evenodd" d="
      M35.14 19.28 L36.90 16.85 L32.00 7.50 L27.10 16.85 L28.86 19.28 L20.87 25.08
      L19.11 22.66 L8.70 24.43 L16.08 31.98 L18.93 31.05 L21.98 40.45 L19.13 41.37
      L17.60 51.82 L27.06 47.14 L27.06 44.14 L36.94 44.14 L36.94 47.14 L46.40 51.82
      L44.87 41.37 L42.02 40.45 L45.07 31.05 L47.92 31.98 L55.30 24.43 L44.89 22.66
      L43.13 25.08 Z
      M32.00 22.40 L22.87 29.03 L26.36 39.77 L30.60 39.77 L30.60 44.14 L33.40 44.14
      L33.40 39.77 L37.64 39.77 L41.13 29.03 Z"/>
    <path fill="none" stroke="#F2F4F6" stroke-width="1.1" stroke-linejoin="miter" d="
      M26.22 16.99 L19.51 21.87 M15.94 32.86 L18.51 40.75
      M45.49 40.75 L48.06 32.86 M44.49 21.87 L37.78 16.99"/>
    <circle fill="#C89B3C" cx="32" cy="32" r="3.4"/>
  </g>

  <!-- Wordmark -->
  <text x="433" y="790" text-anchor="middle"
        font-family="Iowan Old Style, Palatino Linotype, Palatino, Book Antiqua, Georgia, serif"
        font-size="98" font-weight="600" letter-spacing="1" fill="#F2F4F6">local<tspan fill="#C89B3C">hold</tspan></text>
</svg>
