<svg xmlns="http://www.w3.org/2000/svg" viewBox="0 0 64 64" role="img" aria-label="Plan of the Hold — square with ravelins">
  <rect width="64" height="64" fill="#10161E"/>
  <path fill="none" stroke="#3D639C" stroke-width="2.0" stroke-linejoin="miter" d="M42.96 24.69 L46.56 24.69 L48.26 15.74 L39.31 17.44 L39.31 21.04 L24.69 21.04 L24.69 17.44 L15.74 15.74 L17.44 24.69 L21.04 24.69 L21.04 39.31 L17.44 39.31 L15.74 48.26 L24.69 46.56 L24.69 42.96 L39.31 42.96 L39.31 46.56 L48.26 48.26 L46.56 39.31 L42.96 39.31 Z"/>
  <path fill="none" stroke="#3D639C" stroke-width="1.2" stroke-linejoin="miter" d="M35.20 19.04 L32.00 14.54 L28.80 19.04 Z M19.04 28.80 L14.54 32.00 L19.04 35.20 Z M28.80 44.96 L32.00 49.46 L35.20 44.96 Z M44.96 35.20 L49.46 32.00 L44.96 28.80 Z"/>
  <path fill="none" stroke="#3D639C" stroke-width="1.4" stroke-linejoin="miter" d="M34.00 38.22 L38.22 38.22 L38.22 25.78 L25.78 25.78 L25.78 38.22 L30.00 38.22"/>
  <circle fill="#C89B3C" cx="32" cy="32" r="2.8"/>
</svg>
